<svg width="32" height="32" viewBox="0 0 32 32" fill="none" xmlns="http://www.w3.org/2000/svg">
<path d="M31.3703 9.15921C32.2099 13.6625 32.2099 18.2421 31.3703 22.8217C30.607 27.1723 27.1723 30.607 22.8217 31.3703C18.3184 32.2099 13.7388 32.2099 9.15921 31.3703C4.80859 30.607 1.45021 27.2487 0.686941 22.898C-0.22898 18.3948 -0.22898 13.7388 0.686941 9.15921C1.45021 4.80859 4.80859 1.45021 9.15921 0.686941C13.6625 -0.22898 18.3184 -0.22898 22.898 0.686941C27.2487 1.45021 30.607 4.80859 31.3703 9.15921Z" fill="white"/>
<path fill-rule="evenodd" clip-rule="evenodd" d="M30.5834 22.6774C31.4057 18.1924 31.4052 13.7114 30.5839 9.30584L31.3703 9.15921C32.2099 13.6625 32.2099 18.2421 31.3703 22.8217L30.5834 22.6774ZM22.8217 31.3703C27.1723 30.607 30.607 27.1723 31.3703 22.8217L30.5823 22.6835C29.8773 26.7023 26.7023 29.8773 22.6835 30.5823L22.8217 31.3703ZM9.15921 31.3703C13.7388 32.2099 18.3184 32.2099 22.8217 31.3703L22.6751 30.5839C18.2695 31.4052 13.7885 31.4057 9.30348 30.5834L9.15921 31.3703ZM22.898 0.686941L22.7598 1.47491C26.7787 2.17997 29.8773 5.27858 30.5823 9.29745L31.3703 9.15921C30.607 4.80859 27.2487 1.45021 22.898 0.686941ZM9.15921 0.686941C13.6625 -0.22898 18.3184 -0.22898 22.898 0.686941L22.7411 1.47141C18.2642 0.576021 13.7158 0.576547 9.31866 1.47089L9.15921 0.686941ZM0.686941 9.15921C1.45021 4.80859 4.80859 1.45021 9.15921 0.686941L9.29745 1.47491C5.27858 2.17997 2.17997 5.27858 1.47491 9.29745L0.686941 9.15921ZM0.686941 9.15921L1.47141 9.31611C0.576021 13.793 0.576547 18.3414 1.47089 22.7386L0.686941 22.898C-0.22898 18.3948 -0.22898 13.7388 0.686941 9.15921ZM0.686941 22.898C1.45021 27.2487 4.80859 30.607 9.15921 31.3703L9.29745 30.5823C5.27858 29.8773 2.17997 26.7787 1.47491 22.7598L0.686941 22.898Z" fill="#EEF4FE"/>
<path d="M14.0804 21.5999C13.6385 21.5999 13.2804 21.9581 13.2804 22.3999C13.2804 22.8418 13.6385 23.1999 14.0804 23.1999H17.4404C17.8822 23.1999 18.2404 22.8418 18.2404 22.3999C18.2404 21.9581 17.8822 21.5999 17.4404 21.5999H14.0804Z" fill="#0033C9"/>
<path fill-rule="evenodd" clip-rule="evenodd" d="M8.16844 24.8189C8.25188 25.9054 9.08234 26.7956 10.1665 26.905C14.0632 27.2982 17.6175 27.2982 21.5142 26.905C22.5984 26.7956 23.4288 25.9054 23.5123 24.8189C23.5419 24.433 23.5726 24.0447 23.6034 23.6542C23.7983 21.1844 24.0004 18.6239 24.0004 15.9999C24.0004 13.3759 23.7983 10.8156 23.6034 8.34583C23.5726 7.9553 23.5419 7.56684 23.5123 7.18094C23.4288 6.09447 22.5984 5.20422 21.5142 5.09482C17.6175 4.70163 14.0632 4.70163 10.1665 5.09482C9.08234 5.20422 8.25188 6.09447 8.16844 7.18094C8.1388 7.56686 8.10816 7.95516 8.07734 8.34572C7.88242 10.8155 7.68036 13.3759 7.68036 15.9999C7.68036 18.624 7.88242 21.1843 8.07733 23.6541C8.10815 24.0446 8.1388 24.433 8.16844 24.8189ZM22.4004 15.9999C22.4004 18.5559 22.2039 21.0475 22.0089 23.5208C21.9779 23.913 21.947 24.3049 21.917 24.6964C21.89 25.048 21.6297 25.2853 21.3536 25.3131C17.5637 25.6955 14.1171 25.6955 10.3271 25.3131C10.051 25.2852 9.79075 25.048 9.76374 24.6964C9.73367 24.3049 9.70278 23.913 9.67184 23.5207C9.47683 21.0475 9.28036 18.5559 9.28036 15.9999C9.28036 13.444 9.47683 10.9523 9.67184 8.47912C9.70278 8.08683 9.73367 7.69499 9.76374 7.30345C9.79075 6.95181 10.051 6.7146 10.3271 6.68674C14.1171 6.30432 17.5637 6.30432 21.3536 6.68674C21.6297 6.7146 21.89 6.95181 21.917 7.30346C21.947 7.695 21.9779 8.08682 22.0089 8.47911C22.2039 10.9523 22.4004 13.444 22.4004 15.9999Z" fill="#0033C9"/>
<path d="M14.0354 13.3218C14.6566 13.0829 15.3243 12.9593 15.9997 12.9593C16.6752 12.9593 17.3429 13.0829 17.9641 13.3218C18.5852 13.5607 19.1458 13.9094 19.6153 14.3455C19.9391 14.6461 20.4453 14.6274 20.7459 14.3036C21.0466 13.9799 21.0279 13.4737 20.7041 13.1731C20.0813 12.5946 19.3449 12.1386 18.5384 11.8284C17.732 11.5183 16.8695 11.3593 15.9997 11.3593C15.1299 11.3593 14.2675 11.5183 13.4611 11.8284C12.6546 12.1386 11.9182 12.5946 11.2953 13.1731C10.9716 13.4737 10.9529 13.9799 11.2535 14.3036C11.5542 14.6274 12.0604 14.6461 12.3841 14.3455C12.8536 13.9094 13.4143 13.5607 14.0354 13.3218Z" fill="#00CF6A"/>
<path d="M15.9428 15.811C15.5601 15.811 15.1811 15.8866 14.8277 16.0336C14.4743 16.1806 14.1535 16.396 13.8836 16.6674C13.5721 16.9807 13.0656 16.9822 12.7523 16.6707C12.4389 16.3592 12.4375 15.8527 12.749 15.5393C13.1675 15.1184 13.6651 14.7843 14.2133 14.5563C14.7614 14.3283 15.3492 14.211 15.9428 14.211C16.5364 14.211 17.1242 14.3283 17.6723 14.5563C18.2204 14.7843 18.7181 15.1184 19.1366 15.5393C19.4481 15.8527 19.4467 16.3592 19.1333 16.6707C18.82 16.9822 18.3135 16.9807 18.002 16.6674C17.7321 16.396 17.4113 16.1806 17.0579 16.0336C16.7045 15.8866 16.3255 15.811 15.9428 15.811Z" fill="#00CF6A"/>
<path d="M15.1439 17.4257C15.0459 17.467 14.9515 17.5157 14.8613 17.5711C14.6137 17.7233 14.6121 18.0616 14.8093 18.2751L15.557 19.0845C15.7734 19.3188 16.1436 19.3188 16.3601 19.0845L17.1078 18.2751C17.305 18.0616 17.3034 17.7233 17.0558 17.5711C16.9656 17.5157 16.8711 17.467 16.7731 17.4257C16.5153 17.3169 16.2384 17.2609 15.9585 17.2609C15.6787 17.2609 15.4017 17.3169 15.1439 17.4257Z" fill="#00CF6A"/>
</svg>
